<?xml version="1.0" standalone="no"?>
<!DOCTYPE svg PUBLIC "-//W3C//DTD SVG 20010904//EN"
 "http://www.w3.org/TR/2001/REC-SVG-20010904/DTD/svg10.dtd">
<svg version="1.0" xmlns="http://www.w3.org/2000/svg"
 width="2000.000000pt" height="1500.000000pt" viewBox="0 0 2000.000000 1500.000000"
 preserveAspectRatio="xMidYMid meet">

<g transform="translate(0.000000,1500.000000) scale(0.100000,-0.100000)"
fill="#000000" stroke="none">
<path d="M9830 12008 c-380 -140 -564 -223 -702 -316 -42 -29 -79 -52 -81 -52
-3 0 -4 42 -3 93 l1 92 -27 3 c-23 3 -47 -14 -140 -100 -186 -171 -207 -183
-298 -166 -181 33 -402 -102 -497 -300 -47 -100 -48 -100 -247 -82 -144 12
-188 8 -243 -23 -78 -44 -775 -706 -836 -794 -15 -21 -44 -87 -65 -145 -22
-58 -51 -126 -66 -151 -36 -62 -157 -189 -357 -373 -178 -164 -278 -275 -354
-392 -133 -207 -211 -465 -281 -937 -15 -99 -39 -250 -53 -335 l-27 -155 92
-185 c144 -289 215 -485 269 -740 31 -147 32 -191 5 -215 -15 -13 -30 -16 -61
-12 l-42 6 6 -142 c4 -84 13 -165 23 -197 20 -67 79 -207 269 -635 157 -354
293 -687 346 -853 33 -100 34 -103 70 -112 39 -11 103 -73 119 -116 6 -13 19
-70 30 -124 66 -324 229 -550 455 -631 50 -18 92 -23 250 -28 185 -7 192 -8
255 -37 36 -17 88 -50 115 -73 106 -89 282 -151 429 -151 l82 0 277 -145 c152
-79 324 -174 381 -210 57 -36 114 -65 125 -65 12 0 31 10 42 21 30 30 41 10
36 -64 l-3 -57 30 5 c217 36 555 58 791 52 214 -6 339 -21 475 -58 66 -18 82
-19 132 -8 32 6 94 9 140 7 93 -5 190 -39 306 -107 69 -40 154 -60 181 -42 10
6 12 20 7 50 -6 37 -4 42 21 54 46 23 122 46 240 70 136 29 150 25 217 -61 26
-33 62 -67 79 -76 l32 -15 6 84 c10 136 32 155 182 155 l92 0 -4 51 c-6 98 -1
108 151 272 143 155 230 237 282 264 l30 15 67 -73 68 -74 0 40 c1 55 -28 112
-89 179 -28 32 -50 65 -48 73 4 22 159 74 221 74 31 1 59 -6 82 -20 34 -20 35
-20 25 -1 -5 10 -10 32 -10 48 0 46 57 72 171 77 71 2 98 8 118 23 38 28 60
71 69 138 8 57 13 66 108 179 257 309 397 525 569 877 92 188 219 488 210 496
-8 8 -145 -110 -193 -166 -26 -30 -74 -93 -107 -141 -71 -100 -100 -120 -146
-97 -22 11 -31 12 -34 3 -3 -7 -16 -49 -30 -94 -14 -46 -28 -83 -30 -83 -2 0
-1 34 2 76 l6 76 -184 -143 c-460 -357 -924 -694 -1302 -944 -211 -139 -272
-170 -318 -160 -26 6 -68 44 -86 79 -9 16 -14 14 -61 -28 -64 -56 -87 -69
-112 -61 -22 7 -35 43 -28 78 4 21 1 22 -67 24 -78 3 -88 -2 -116 -61 -20 -41
-30 -41 -59 2 l-24 37 -17 -85 c-9 -47 -17 -76 -18 -64 0 11 -8 29 -16 40 -14
18 -16 18 -42 -12 -16 -17 -33 -39 -38 -48 -9 -15 -17 -8 -58 52 -26 38 -55
76 -65 86 -18 16 -18 14 -3 -44 12 -46 13 -62 3 -72 -9 -9 -16 -8 -30 5 -19
17 -19 16 -25 -40 -4 -40 -11 -60 -24 -67 -10 -5 -44 -34 -75 -64 l-57 -54
-132 -14 c-157 -16 -286 -38 -387 -63 -54 -14 -82 -17 -105 -10 -67 19 -358
79 -502 103 -162 27 -346 49 -545 66 -163 14 -301 43 -420 87 -94 34 -304 138
-348 172 l-23 17 38 24 c42 27 77 88 67 114 -6 15 -9 15 -26 -4 -24 -26 -52
-37 -141 -56 l-69 -14 -177 168 c-97 92 -279 264 -406 381 -429 399 -845 822
-932 951 -46 69 -114 208 -183 380 -62 155 -120 292 -126 299 -1 1 -13 -6 -25
-18 -41 -38 -71 -26 -105 42 -27 52 -28 103 -3 133 14 17 52 18 81 3 19 -10
20 -9 15 22 -35 197 -88 623 -83 664 3 31 25 90 57 155 l52 105 63 569 c67
605 90 744 155 939 154 461 399 798 959 1317 324 301 336 310 475 392 66 39
201 119 300 178 514 306 744 415 1043 489 209 52 305 63 612 70 276 6 286 7
323 29 58 37 71 70 75 198 l4 112 -44 -5 c-53 -6 -87 9 -172 78 -32 26 -80 56
-105 67 l-46 19 -105 -39z m-3535 -5754 c20 -20 37 -53 96 -188 27 -60 56
-117 65 -127 28 -31 -6 -24 -54 11 -55 40 -69 63 -81 138 -6 37 -23 87 -41
118 -16 29 -30 56 -30 59 0 11 30 4 45 -11z m-118 -6 c9 -14 63 -188 58 -188
-3 0 -108 130 -118 146 -8 14 20 54 38 54 8 0 17 -6 22 -12z"/>
<path d="M11334 11751 c-167 -7 -189 -14 -226 -77 -11 -19 -21 -34 -23 -34 -2
0 -16 5 -32 11 -44 16 -246 12 -291 -6 -116 -49 -152 -171 -81 -278 94 -143
324 -247 585 -266 l101 -7 198 -119 c253 -150 525 -333 990 -666 486 -348 440
-319 500 -319 39 0 71 9 134 40 45 22 86 40 91 40 4 0 10 -53 12 -117 6 -129
32 -229 107 -404 49 -112 77 -148 176 -219 85 -61 119 -101 157 -185 30 -65
32 -218 4 -312 l-18 -62 56 -106 c96 -182 204 -323 301 -395 l52 -39 5 -66 c9
-105 46 -131 105 -73 32 31 33 31 33 9 0 -12 -7 -80 -16 -149 -18 -137 -22
-409 -7 -456 7 -23 13 7 26 141 28 272 70 490 128 662 16 46 27 86 25 89 -11
10 -48 -23 -72 -63 -24 -42 -67 -85 -84 -85 -4 0 -10 82 -14 183 -8 221 -25
397 -70 755 l-35 273 -455 727 c-312 498 -475 749 -518 798 -132 149 -333 315
-511 423 -228 138 -530 262 -782 322 -74 17 -318 41 -375 37 -14 -1 -93 -4
-176 -7z"/>
<path d="M8904 9990 c-222 -33 -389 -180 -516 -457 -35 -76 -47 -93 -64 -93
-18 0 -23 7 -28 38 -10 59 -56 424 -56 439 0 10 -65 13 -340 13 l-340 0 0
-1520 0 -1520 394 0 395 0 4 833 c4 715 7 843 20 911 50 244 152 404 313 488
115 61 208 79 432 85 l192 6 0 367 0 367 -57 16 c-120 34 -240 43 -349 27z"/>
<path d="M10865 9989 c-478 -36 -859 -220 -1024 -494 -141 -234 -145 -602 -9
-833 72 -122 260 -279 422 -352 112 -50 337 -118 636 -192 526 -129 666 -189
723 -310 55 -116 17 -231 -98 -294 -159 -87 -497 -114 -721 -58 -217 53 -320
148 -345 318 l-11 76 -378 0 -378 0 -6 -47 c-14 -103 24 -286 85 -408 119
-242 378 -429 713 -515 169 -43 328 -60 568 -60 687 0 1111 176 1292 537 67
134 102 350 87 530 -18 202 -71 328 -189 454 -146 155 -282 235 -534 313 -140
43 -485 131 -613 156 -222 43 -420 112 -485 167 -105 91 -105 236 1 312 127
92 454 127 671 72 183 -47 273 -130 285 -261 l6 -60 383 0 384 0 0 113 c0 211
-57 354 -195 492 -260 261 -723 387 -1270 344z"/>
</g>
</svg>
